<?xml version="1.0" standalone="no"?>
<!DOCTYPE svg PUBLIC "-//W3C//DTD SVG 20010904//EN"
 "http://www.w3.org/TR/2001/REC-SVG-20010904/DTD/svg10.dtd">
<svg version="1.0" xmlns="http://www.w3.org/2000/svg"
 width="1920.000000pt" height="720.000000pt" viewBox="0 0 1920.000000 720.000000"
 preserveAspectRatio="xMidYMid meet">

<g transform="translate(0.000000,720.000000) scale(0.100000,-0.100000)"
fill="#000000" stroke="none">
<path d="M2595 6053 c-181 -7 -376 -48 -526 -113 -263 -112 -444 -322 -514
-595 -21 -82 -19 -112 8 -139 27 -27 37 -29 297 -56 107 -11 209 -23 226 -25
50 -8 89 31 114 115 38 127 124 216 247 256 68 21 206 25 270 6 67 -20 135
-72 169 -129 41 -68 54 -139 54 -289 l0 -123 -32 -5 c-18 -3 -120 -15 -225
-26 -514 -55 -756 -136 -958 -323 -129 -118 -213 -272 -250 -456 -24 -116 -16
-354 14 -458 24 -84 64 -170 109 -235 72 -105 228 -213 362 -252 218 -62 546
-34 738 63 70 35 195 127 278 204 34 31 64 57 67 57 2 0 28 -35 58 -77 59 -87
154 -191 213 -234 63 -47 91 -41 185 39 266 224 350 300 360 322 16 37 2 75
-64 166 -62 86 -92 141 -121 219 -17 46 -19 104 -25 725 -7 719 -8 737 -59
873 -119 317 -505 507 -995 490z m342 -1705 c-5 -229 -15 -277 -77 -404 -68
-139 -156 -218 -280 -250 -113 -29 -229 2 -297 79 -100 114 -119 332 -43 495
82 175 305 278 614 281 l89 1 -6 -202z"/>
<path d="M9155 6048 c-534 -30 -909 -302 -996 -723 -15 -73 -7 -109 26 -131
30 -19 518 -76 550 -64 32 12 51 41 74 111 52 159 147 240 315 270 182 31 341
-43 396 -187 19 -49 24 -84 28 -211 l4 -152 -33 -5 c-19 -3 -121 -15 -228 -26
-519 -55 -762 -138 -960 -325 -178 -169 -263 -376 -263 -645 -1 -185 31 -319
103 -448 42 -74 168 -199 242 -240 143 -80 327 -112 535 -93 263 24 408 90
625 285 44 39 81 65 86 60 4 -5 29 -40 56 -79 54 -79 186 -219 227 -241 62
-32 88 -19 267 139 70 61 158 138 194 170 61 53 67 62 67 97 0 30 -10 53 -45
102 -72 102 -122 189 -141 248 -16 50 -19 117 -25 720 -7 715 -9 741 -62 882
-97 254 -340 420 -692 472 -130 20 -203 22 -350 14z m392 -1695 c-4 -155 -10
-215 -26 -276 -45 -169 -142 -300 -268 -360 -59 -27 -79 -32 -148 -32 -90 0
-147 22 -203 76 -106 104 -132 343 -56 506 83 175 307 278 613 282 l94 1 -6
-197z"/>
<path d="M5430 6019 c-89 -15 -174 -47 -242 -91 -112 -71 -170 -139 -250 -293
l-47 -90 -1 186 0 186 -26 27 -27 26 -277 0 -277 0 -24 -26 -24 -26 0 -1330 0
-1330 28 -24 28 -24 284 0 283 0 30 25 30 25 5 863 c4 822 5 866 24 952 43
192 119 278 268 306 132 24 257 -34 313 -146 51 -101 52 -129 52 -1070 0 -945
-2 -915 52 -943 18 -10 94 -12 312 -10 285 3 288 3 306 25 17 22 18 71 23 885
5 928 7 959 58 1066 55 114 176 192 298 192 158 0 259 -79 290 -228 8 -37 11
-334 11 -958 0 -983 -2 -946 55 -972 18 -8 108 -12 296 -12 284 0 314 4 335
47 13 26 17 1985 4 2111 -12 130 -32 208 -76 300 -109 227 -394 378 -679 359
-117 -8 -191 -28 -293 -78 -144 -70 -243 -169 -317 -318 l-37 -74 -43 81 c-62
115 -94 160 -168 229 -69 65 -157 114 -247 139 -68 18 -257 26 -330 13z"/>
<path d="M13960 6015 c-215 -34 -384 -120 -548 -279 -276 -267 -417 -703 -398
-1226 10 -281 60 -503 161 -717 179 -378 466 -590 855 -633 200 -22 403 14
585 105 390 194 628 601 676 1157 44 521 -125 1059 -419 1329 -245 225 -566
318 -912 264z m337 -544 c63 -28 126 -93 158 -164 34 -75 72 -261 86 -415 15
-178 7 -626 -15 -747 -52 -296 -164 -439 -355 -453 -224 -16 -358 173 -402
568 -19 176 -17 629 4 766 41 268 123 404 276 461 54 20 184 12 248 -16z"/>
<path d="M16905 6023 c-244 -38 -395 -159 -526 -421 l-48 -97 -1 202 0 201
-26 31 -26 31 -277 0 -278 0 -24 -26 -24 -26 -3 -1311 c-2 -975 1 -1319 9
-1340 22 -54 42 -57 343 -57 l276 0 32 29 33 29 5 849 c6 840 6 849 28 928 62
222 163 330 318 343 157 12 254 -62 308 -237 20 -64 20 -96 26 -979 l5 -914
28 -24 28 -24 280 0 c293 0 327 5 343 45 11 30 7 1957 -5 2067 -14 130 -50
273 -87 348 -83 166 -232 285 -417 335 -59 16 -261 28 -320 18z"/>
<path d="M10899 5951 l-29 -29 0 -211 c0 -128 4 -219 11 -234 24 -52 21 -52
497 -55 243 -1 442 -6 442 -10 -1 -4 -34 -54 -75 -112 -85 -121 -283 -404
-369 -529 -33 -47 -105 -151 -161 -231 -56 -80 -123 -176 -150 -215 -27 -38
-91 -131 -143 -205 -144 -206 -136 -175 -140 -507 l-3 -283 25 -25 c34 -34 72
-32 148 6 142 72 347 135 528 163 367 57 760 2 1096 -154 91 -42 113 -47 145
-30 43 24 49 57 49 283 0 208 -1 214 -26 264 -23 47 -32 55 -112 96 -226 115
-495 177 -773 177 -65 0 -119 2 -119 5 0 3 211 306 468 673 257 368 477 686
487 708 18 35 20 61 20 237 l0 199 -28 24 -28 24 -865 0 -866 0 -29 -29z"/>
</g>
</svg>
